PathFileType	3	(X/Y/Z)	C:\Users\koon_\Desktop\
DataRate	CameraRate	NumFrames	NumMarkers	Units	OrigDataRate	OrigDataStartFrame	OrigNumFrames
100.0	100.0	10	27	mm	100.0	1128	3007	
Frame#	Time	get:LFHD			get:RFHD			get:LBHD			get:RBHD			get:C7			get:T10			get:CLAV			get:STRN			get:RBAK			get:LSHO			get:LUPA			get:LELB			get:LFRA			get:LWRA			get:LWRB			get:LFIN			get:RSHO			get:RUPA			get:RELB			get:RFRA			get:RWRA			get:RWRB			get:RFIN			get:LASI			get:RASI			get:LPSI			get:RPSI			
		X1	Y1	Z1	X2	Y2	Z2	X3	Y3	Z3	X4	Y4	Z4	X5	Y5	Z5	X6	Y6	Z6	X7	Y7	Z7	X8	Y8	Z8	X9	Y9	Z9	X10	Y10	Z10	X11	Y11	Z11	X12	Y12	Z12	X13	Y13	Z13	X14	Y14	Z14	X15	Y15	Z15	X16	Y16	Z16	X17	Y17	Z17	X18	Y18	Z18	X19	Y19	Z19	X20	Y20	Z20	X21	Y21	Z21	X22	Y22	Z22	X23	Y23	Z23	X24	Y24	Z24	X25	Y25	Z25	X26	Y26	Z26	X27	Y27	Z27	
1128	11.27	28.365145	1540.5955	-326.09796	-124.72237	1502.2225	-326.67767	45.504463	1447.3068	-407.92657	-75.904007	1412.7487	-430.09229	-2.0899003	1310.0061	-347.63739	12.086643	1058.5969	-288.41553	-23.03125	1297.2808	-146.9679	-3.1757755	1135.9705	-40.207672	-83.45652	1229.0402	-352.88599	146.17673	1352.0609	-231.82169	206.39859	1223.6813	-154.73825	235.98108	1045.4567	-114.88325	194.16859	964.53223	-27.301834	175.89645	869.27466	-0.42267558	244.87144	867.02289	-14.875821	225.66455	793.81769	39.268272	-169.05688	1315.1724	-271.64044	-238.91632	1117.2872	-166.66077	-244.51973	1002.6643	-174.43282	-238.68217	964.63843	-75.725075	-218.55341	820.64532	-8.686038	-264.95193	808.07507	-67.937813	-263.78122	756.54407	10.351614	128.29283	934.16937	-39.786842	-149.54539	922.80487	-54.516949	55.519875	930.03809	-250.86337	-57.737648	923.45831	-252.55745
1129	11.28	28.655472	1541.465	-323.47122	-124.40572	1503.2407	-324.36389	45.820705	1448.6279	-405.74652	-75.61525	1414.2379	-428.15128	-2.0852776	1310.8278	-346.27591	12.167994	1059.2545	-287.84155	-22.944429	1297.4739	-145.47945	-3.1287787	1135.7031	-39.274944	-83.378357	1229.9198	-351.54013	146.35802	1352.4673	-230.13704	206.3774	1223.6636	-153.28238	235.89651	1045.2734	-114.03812	193.99733	964.12177	-26.757406	175.59497	868.79602	-0.22450697	244.65262	866.55316	-14.531278	225.32477	793.16315	39.276947	-168.93437	1315.8411	-270.03238	-238.70654	1117.6843	-165.52237	-244.53456	1003.0505	-173.66118	-238.46814	964.70343	-75.200714	-218.40623	820.48999	-8.6790314	-264.87863	808.13477	-67.917603	-263.78821	756.39716	10.158533	128.37999	933.99207	-39.429153	-149.62317	922.70258	-54.113403	55.431324	929.99872	-250.44409	-57.729565	922.87451	-251.26469
1130	11.29	28.982552	1542.3652	-320.61746	-124.07012	1504.2605	-321.76324	46.091431	1450.2043	-403.63812	-75.501923	1415.8827	-425.42654	-1.9560874	1311.6461	-344.6684	12.178533	1059.9539	-287.15051	-22.786461	1297.6504	-143.8847	-3.1204948	1135.5027	-38.419834	-83.352386	1230.7845	-350.20068	146.47713	1352.7451	-228.47826	206.32394	1223.7725	-151.83691	235.87129	1045.2064	-113.2286	193.81114	963.80963	-26.258121	175.38248	868.34113	-0.02147348	244.52457	866.18781	-14.268055	224.98579	792.48376	39.423679	-168.75195	1316.5457	-268.55835	-238.50729	1118.1597	-164.38586	-244.42258	1003.5335	-172.96765	-238.19028	964.86249	-74.661728	-218.19069	820.38538	-8.7269268	-264.7858	808.28046	-67.989433	-263.56177	756.24109	10.022832	128.3981	933.83026	-39.001186	-149.6904	922.62665	-53.703186	55.323853	930.00671	-250.02524	-57.687153	922.86707	-250.88921
1131	11.3	29.449448	1543.3152	-317.5072	-123.70507	1505.3125	-318.98694	46.398453	1451.9205	-401.40793	-75.082108	1418.0486	-424.37311	-1.8131858	1312.4417	-343.15021	12.053561	1060.6194	-286.35791	-22.543196	1297.7517	-142.37975	-3.0839179	1135.3918	-37.540913	-83.220047	1231.7889	-349.09863	146.64453	1353.0533	-226.79494	206.36252	1223.8793	-150.55295	235.808	1045.2245	-112.46587	193.66505	963.50671	-25.734886	175.34523	867.96136	0.1980857	244.39368	865.86725	-13.979271	224.82722	791.99634	39.465706	-168.53384	1317.2994	-266.73746	-238.32816	1118.678	-163.35696	-244.39906	1004.0634	-172.17885	-237.89296	965.04272	-74.116425	-217.93665	820.35016	-8.7402945	-264.64502	808.40198	-67.923576	-263.28851	756.13477	9.8791323	128.45598	933.70557	-38.69017	-149.71094	922.62646	-53.39695	55.219212	930.10626	-249.65527	-57.706112	923.00305	-250.61598
1132	11.31	29.881332	1544.2579	-314.21024	-123.33739	1506.4044	-316.04935	46.737675	1453.6632	-399.03079	-74.759766	1420.0527	-422.27036	-1.6734761	1313.3344	-341.45621	11.967605	1061.3417	-285.56543	-22.217745	1297.7806	-141.04057	-2.9735601	1135.2738	-36.533752	-83.201347	1232.755	-347.62091	146.86507	1353.382	-225.02513	206.4397	1223.9901	-149.20068	235.74171	1045.2769	-111.56685	193.49753	963.19373	-25.311556	175.11151	867.25104	0.13992718	244.32707	865.57623	-13.762319	224.75346	791.60156	39.516991	-168.31316	1318.1438	-265.21295	-238.15628	1119.2662	-162.28743	-244.29675	1004.7211	-171.52243	-237.60059	965.26471	-73.534821	-217.70984	820.29761	-8.8178463	-264.51636	808.64221	-67.90741	-262.97198	756.02332	9.7982855	128.43541	933.70782	-38.449127	-149.66377	922.72754	-53.105175	55.132027	930.3587	-249.38786	-57.730072	923.41437	-250.53441
1133	11.32	30.296705	1545.2515	-310.86276	-122.84155	1507.5304	-312.90961	47.10643	1455.2722	-396.39563	-74.45163	1422.0226	-419.94357	-1.4976561	1314.4631	-339.60684	11.867288	1062.0498	-284.79788	-21.872402	1297.8353	-139.5416	-2.9207058	1135.0179	-35.662918	-83.086189	1233.8771	-346.1478	147.19135	1353.738	-223.26663	206.54366	1224.0466	-147.87218	235.68832	1045.2838	-110.77471	193.52792	962.90717	-24.811207	175.14873	866.99835	1.3767265	244.3138	865.2348	-13.591291	224.88643	791.37665	39.450874	-168.12077	1319.0129	-263.34164	-237.98347	1119.8236	-161.23398	-244.21149	1005.3	-170.84404	-237.42003	965.47821	-73.028442	-217.43228	820.29932	-8.854002	-264.42911	808.77814	-67.781738	-262.67456	755.91858	9.6321945	128.35057	933.81683	-38.285889	-149.64674	922.92883	-52.932034	55.068367	930.82874	-249.2233	-57.851482	924.02417	-250.46101
1134	11.33	30.831953	1546.3214	-307.45313	-122.38991	1508.7656	-309.65036	47.514191	1456.8938	-393.50449	-74.121048	1423.8604	-417.17709	-1.2824847	1315.667	-337.65372	11.790755	1062.6936	-284.1138	-21.451536	1297.8414	-138.16704	-2.8341517	1134.7483	-35.010998	-83.062004	1235.2466	-344.66754	147.45384	1353.95	-221.33287	206.78445	1224.1017	-146.55046	235.75801	1045.2285	-109.96825	193.55772	962.59711	-24.234734	175.25276	866.63495	1.6285926	244.36551	864.88232	-13.345407	225.0101	790.97064	39.517807	-167.86794	1319.9647	-261.22473	-237.86482	1120.3538	-160.1687	-244.14908	1005.8715	-170.19728	-237.32835	965.70056	-72.470543	-217.22897	820.25342	-8.8470354	-264.32132	808.93835	-67.705666	-262.36969	755.79504	9.4982166	128.19322	933.72467	-38.680096	-149.57205	923.19928	-52.798843	55.024021	931.43005	-249.15457	-58.039207	924.72131	-250.47752
1135	11.34	31.343578	1547.4564	-303.89709	-121.86401	1510.1307	-306.11609	47.86034	1458.455	-390.4733	-73.737221	1425.6633	-414.16653	-1.1565866	1317.0569	-335.67465	11.731232	1063.4684	-283.59662	-21.065315	1298.0076	-136.4267	-2.7148752	1134.3781	-34.208389	-83.011086	1236.8228	-343.1553	147.8354	1354.3096	-219.31606	206.99651	1224.0636	-145.17549	235.95557	1045.1464	-109.11635	193.60065	962.2417	-23.743011	175.34334	866.24219	1.8955747	244.4425	864.50372	-13.13925	225.19873	790.50641	39.650116	-167.67781	1321.0746	-259.2099	-237.70311	1120.9647	-159.00174	-244.04349	1006.475	-169.507	-237.19312	965.90094	-71.98793	-216.99104	820.2262	-8.9172974	-264.15598	809.13342	-67.729233	-262.07684	755.69745	9.3445024	128.01723	933.67346	-39.016018	-149.51085	923.39612	-52.860825	54.968472	932.03033	-249.11101	-58.141716	925.40948	-250.48172
1136	11.35	31.994875	1548.7144	-300.17419	-121.33842	1511.6499	-302.54523	48.243038	1460.1049	-387.22806	-73.532761	1427.4839	-410.19785	-0.95811826	1318.5228	-333.55258	11.719839	1064.3248	-283.15485	-20.708885	1298.2399	-134.35287	-2.576304	1133.9452	-33.437973	-82.950386	1238.4735	-341.48053	148.34413	1354.7883	-217.1189	207.27116	1224.0277	-143.76219	236.12209	1044.9989	-108.30895	193.70758	961.84918	-23.25779	175.58264	865.99603	2.1351836	244.54129	864.11719	-12.918097	225.37801	790.05176	39.737755	-167.42117	1322.1965	-256.74475	-237.5249	1121.5898	-157.7184	-243.98076	1007.1261	-168.79347	-237.0457	966.17529	-71.404533	-216.76982	820.2558	-8.8693457	-263.9985	809.3681	-67.707016	-261.77951	755.66925	9.1323004	127.89703	933.62549	-39.372162	-149.48505	923.58527	-52.936462	54.899422	932.65137	-249.11731	-58.190434	926.08881	-250.68864
1137	11.36	32.604137	1550.0593	-296.47	-120.74988	1513.323	-298.74051	48.642036	1461.9272	-383.99796	-73.152596	1429.8131	-407.85104	-0.80930698	1320.1727	-331.38986	11.699638	1065.3162	-282.8154	-20.269451	1298.5597	-132.39955	-2.4703135	1133.4636	-32.452568	-82.963272	1240.3401	-339.92874	148.82814	1355.1281	-215.01282	207.57936	1223.9749	-142.31618	236.43515	1044.8324	-107.63371	193.92236	961.51477	-22.718203	175.70096	865.54443	1.5857302	244.62296	863.70276	-12.663314	225.61638	789.62402	39.79678	-167.12666	1323.4298	-254.33209	-237.2468	1122.2853	-156.34508	-243.93567	1007.8735	-168.04817	-236.75356	966.48633	-70.833679	-216.53009	820.29266	-8.9442701	-263.87024	809.66248	-67.813454	-261.56726	755.75757	8.87082	127.85794	933.62964	-39.585686	-149.46458	923.7052	-53.114384	54.884315	933.14917	-249.12167	-58.189659	926.67737	-250.89871
